<svg width="86" height="18" viewBox="0 0 86 18" fill="none" xmlns="http://www.w3.org/2000/svg">
<path d="M1.87219 2.51163C1.87219 1.8 1.77511 1.27674 1.58096 0.941861C1.38681 0.593023 0.998502 0.418605 0.416042 0.418605H0V0H5.40855C6.73989 0 7.93948 0.286047 9.00732 0.85814C10.0752 1.43023 10.6091 2.53954 10.6091 4.18605C10.6091 5.27442 10.3317 6.11163 9.777 6.69767C9.22227 7.28372 8.59821 7.67442 7.90481 7.86977C7.22527 8.06512 6.60121 8.16279 6.03262 8.16279H3.74438V13.814H1.87219V2.51163ZM5.30454 7.43023C5.74832 7.43023 6.21983 7.3186 6.71909 7.09535C7.21834 6.85814 7.64131 6.48837 7.98801 5.98605C8.34858 5.48372 8.52887 4.84884 8.52887 4.0814C8.52887 3.31395 8.34858 2.67907 7.98801 2.17674C7.64131 1.67442 7.21834 1.31163 6.71909 1.08837C6.21983 0.851163 5.74832 0.732559 5.30454 0.732559C4.81916 0.732559 4.29911 0.802326 3.74438 0.941861V7.22093C4.29911 7.36046 4.81916 7.43023 5.30454 7.43023Z" fill="white"/>
<path d="M14.8709 14.0233C14.4271 14.0233 13.9764 13.9326 13.5188 13.7512C13.0611 13.5558 12.6659 13.2419 12.3331 12.8093C12.0141 12.3767 11.8546 11.8047 11.8546 11.093C11.8546 10.0326 12.34 9.27907 13.3108 8.83256C14.2954 8.38605 15.5782 8.16279 17.1591 8.16279H17.7832C17.7832 6.79535 17.596 5.86047 17.2216 5.35814C16.8471 4.85581 16.3063 4.60465 15.599 4.60465C14.9749 4.60465 14.4757 4.73721 14.1012 5.00233C13.7268 5.26744 13.4633 5.72791 13.3108 6.38372H12.3747C12.3747 5.9093 12.4024 5.53953 12.4579 5.27442C12.5133 4.99535 12.659 4.73721 12.8947 4.5C13.1443 4.24884 13.5534 4.06744 14.122 3.95581C14.7045 3.83023 15.3355 3.76744 16.015 3.76744C17.1383 3.76744 18.0259 4.07442 18.6777 4.68837C19.3295 5.28837 19.6554 6.44651 19.6554 8.16279V13.814H18.6153L17.8872 12.8721H17.7832C17.5336 13.193 17.1661 13.4651 16.6807 13.6884C16.1953 13.9116 15.5921 14.0233 14.8709 14.0233ZM15.807 13.0814C16.2647 13.0814 16.646 12.9698 16.9511 12.7465C17.2562 12.5233 17.5336 12.2163 17.7832 11.8256V9H17.1591C16.1329 9 15.3216 9.19535 14.7253 9.58605C14.129 9.96279 13.8308 10.4651 13.8308 11.093C13.8308 11.7349 14.018 12.2302 14.3925 12.5791C14.7808 12.914 15.2523 13.0814 15.807 13.0814Z" fill="white"/>
<path d="M22.7226 6.48837C22.7226 5.77674 22.6255 5.25349 22.4314 4.9186C22.2372 4.56977 21.8489 4.39535 21.2664 4.39535H21.0584V3.97674H22.7226C23.2496 3.97674 23.6448 4.05349 23.9083 4.20698C24.1857 4.34651 24.3798 4.58372 24.4908 4.9186H24.5948C24.8444 4.59767 25.1772 4.32558 25.5933 4.10233C26.0232 3.87907 26.5224 3.76744 27.091 3.76744C27.6457 3.76744 28.0618 3.87209 28.3392 4.0814C28.5749 4.26279 28.8176 4.57674 29.0672 5.02326L28.2351 5.65116C28.0826 5.44186 27.8607 5.28837 27.5695 5.1907C27.2782 5.07907 26.9454 5.02326 26.571 5.02326C26.1549 5.02326 25.7736 5.12093 25.4269 5.31628C25.0802 5.49767 24.8028 5.74884 24.5948 6.06977V13.814H22.7226V6.48837Z" fill="white"/>
<path d="M33.7157 14.0233C32.9391 14.0233 32.3289 13.8 31.8851 13.3535C31.4413 12.907 31.2194 12.2233 31.2194 11.3023V4.81395H29.7633V3.97674H31.2194V2.09302L32.2595 0.83721H33.0916V3.97674H35.5879V4.81395H33.0916V11.3023C33.0916 12.5581 33.577 13.186 34.5478 13.186C34.8806 13.186 35.158 13.1512 35.3799 13.0814C35.6156 13.0116 35.8583 12.907 36.1079 12.7674L36.316 13.186C35.997 13.4233 35.6433 13.6256 35.255 13.793C34.8667 13.9465 34.3536 14.0233 33.7157 14.0233Z" fill="white"/>
<path d="M38.5395 17.3721C39.219 17.3721 39.7738 17.2116 40.2037 16.8907C40.6475 16.5837 41.0288 16.0116 41.3478 15.1744L41.7638 14.0233L38.4355 5.86047C38.0472 4.85581 37.2844 4.29767 36.1473 4.18605V3.76744H37.9154C39.122 3.76744 39.954 4.32558 40.4117 5.44186L42.7831 11.2395L45.4042 3.97674H46.4443L42.3879 15.1744C41.9857 16.2767 41.5419 17.0233 41.0566 17.414C40.5712 17.8047 39.9402 18 39.1636 18H38.5395V17.3721Z" fill="white"/>
<path d="M51.0821 8.56941C51.0821 8.07422 51.0137 7.71011 50.877 7.47707C50.7403 7.23433 50.4668 7.11296 50.0566 7.11296H49.7637V6.82167H51.0821C51.4434 6.82167 51.7169 6.87022 51.9024 6.96732C52.0977 7.06441 52.2393 7.21006 52.3272 7.40425H52.4005C52.6055 7.20035 52.8692 7.03043 53.1915 6.89449C53.5235 6.74885 53.8946 6.67603 54.3048 6.67603C54.715 6.67603 55.0666 6.7537 55.3595 6.90906C55.6525 7.0547 55.8869 7.31686 56.0627 7.69554C56.3166 7.37512 56.6389 7.12753 57.0295 6.95275C57.4299 6.76827 57.8401 6.67603 58.26 6.67603C58.885 6.67603 59.3831 6.87022 59.7542 7.25861C60.1253 7.64699 60.3108 8.32667 60.3108 9.29764V13.667H58.9924V9.29764C58.9924 8.59854 58.8948 8.09849 58.6995 7.79749C58.5041 7.48678 58.2112 7.33143 57.8205 7.33143C57.5471 7.33143 57.259 7.43338 56.9562 7.63728C56.6535 7.83148 56.4289 8.04509 56.2824 8.27812C56.3312 8.42377 56.3556 8.7636 56.3556 9.29764V13.667H55.0373V9.29764C55.0373 8.59854 54.9396 8.09849 54.7443 7.79749C54.549 7.48678 54.256 7.33143 53.8653 7.33143C53.3478 7.33143 52.8595 7.58873 52.4005 8.10335V13.667H51.0821V8.56941Z" fill="white"/>
<path d="M64.0046 13.8126C63.6921 13.8126 63.3747 13.7495 63.0525 13.6233C62.7302 13.4874 62.4519 13.2689 62.2175 12.9679C61.9929 12.6669 61.8805 12.2688 61.8805 11.7736C61.8805 11.0357 62.2224 10.5113 62.906 10.2006C63.5993 9.88993 64.5027 9.73457 65.616 9.73457H66.0555C66.0555 8.78302 65.9236 8.13248 65.6599 7.78293C65.3963 7.43338 65.0154 7.25861 64.5173 7.25861C64.0779 7.25861 63.7263 7.35085 63.4626 7.53533C63.1989 7.71982 63.0134 8.04023 62.906 8.49659H62.2468C62.2468 8.16646 62.2663 7.90915 62.3054 7.72467C62.3444 7.53048 62.447 7.35085 62.613 7.18578C62.7888 7.01101 63.0769 6.88478 63.4773 6.80711C63.8874 6.71972 64.3318 6.67603 64.8103 6.67603C65.6014 6.67603 66.2264 6.88964 66.6854 7.31686C67.1444 7.73438 67.3739 8.54028 67.3739 9.73457V13.667H66.6414L66.1287 13.0116H66.0555C65.8797 13.2349 65.6209 13.4242 65.2791 13.5796C64.9373 13.735 64.5125 13.8126 64.0046 13.8126ZM64.6638 13.1572C64.9861 13.1572 65.2547 13.0796 65.4695 12.9242C65.6844 12.7688 65.8797 12.5552 66.0555 12.2834V10.3172H65.616C64.8933 10.3172 64.322 10.4531 63.9021 10.725C63.4822 10.9871 63.2722 11.3367 63.2722 11.7736C63.2722 12.2202 63.404 12.5649 63.6677 12.8077C63.9412 13.0407 64.2732 13.1572 64.6638 13.1572Z" fill="white"/>
<path d="M69.6363 8.56941C69.6363 8.07422 69.5679 7.71011 69.4312 7.47707C69.2945 7.23433 69.0211 7.11296 68.6109 7.11296H68.3179V6.82167H69.6363C69.9976 6.82167 70.2711 6.87022 70.4566 6.96732C70.652 7.06441 70.7936 7.21006 70.8815 7.40425H70.9547C71.1598 7.20035 71.4235 7.03043 71.7457 6.89449C72.0778 6.74885 72.4489 6.67603 72.859 6.67603C73.5915 6.67603 74.1872 6.87022 74.6462 7.25861C75.115 7.64699 75.3494 8.32667 75.3494 9.29764V13.667H74.031V9.29764C74.031 8.61796 73.8747 8.12277 73.5622 7.81206C73.2594 7.49164 72.8786 7.33143 72.4196 7.33143C71.902 7.33143 71.4137 7.58873 70.9547 8.10335V13.667H69.6363V8.56941Z" fill="white"/>
<path d="M82.6304 13.8126C82.3179 13.8126 82.0005 13.7495 81.6782 13.6233C81.3559 13.4874 81.0776 13.2689 80.8432 12.9679C80.6186 12.6669 80.5063 12.2688 80.5063 11.7736C80.5063 11.0357 80.8481 10.5113 81.5317 10.2006C82.2251 9.88993 83.1285 9.73457 84.2418 9.73457H84.6812C84.6812 8.78302 84.5494 8.13248 84.2857 7.78293C84.022 7.43338 83.6412 7.25861 83.1431 7.25861C82.7036 7.25861 82.3521 7.35085 82.0884 7.53533C81.8247 7.71982 81.6392 8.04023 81.5317 8.49659H80.8725C80.8725 8.16646 80.8921 7.90915 80.9311 7.72467C80.9702 7.53048 81.0727 7.35085 81.2388 7.18578C81.4145 7.01101 81.7026 6.88478 82.103 6.80711C82.5132 6.71972 82.9575 6.67603 83.4361 6.67603C84.2271 6.67603 84.8521 6.88964 85.3111 7.31686C85.7701 7.73438 85.9996 8.54028 85.9996 9.73457V13.667H85.2672L84.7545 13.0116H84.6812C84.5054 13.2349 84.2466 13.4242 83.9048 13.5796C83.563 13.735 83.1382 13.8126 82.6304 13.8126ZM83.2896 13.1572C83.6119 13.1572 83.8804 13.0796 84.0953 12.9242C84.3101 12.7688 84.5054 12.5552 84.6812 12.2834V10.3172H84.2418C83.5191 10.3172 82.9478 10.4531 82.5279 10.725C82.1079 10.9871 81.898 11.3367 81.898 11.7736C81.898 12.2202 82.0298 12.5649 82.2935 12.8077C82.5669 13.0407 82.899 13.1572 83.2896 13.1572Z" fill="white"/>
<path d="M78.1617 6.03821C77.9371 6.03821 77.7417 5.94597 77.5757 5.76149C77.4195 5.57701 77.3413 5.35854 77.3413 5.10609C77.3413 4.90218 77.3999 4.74197 77.5171 4.62546C77.6441 4.50894 77.8101 4.45068 78.0152 4.45068C78.2398 4.45068 78.4302 4.54293 78.5865 4.72741C78.7525 4.91189 78.8355 5.13036 78.8355 5.38281C78.8355 5.58671 78.772 5.74692 78.6451 5.86344C78.5279 5.97996 78.3668 6.03821 78.1617 6.03821ZM77.605 8.65982C77.605 8.16463 77.5367 7.80052 77.3999 7.56749C77.2632 7.32475 76.9898 7.20337 76.5796 7.20337H76.2866V6.91208H77.605C77.9664 6.91208 78.2349 6.96063 78.4107 7.05773C78.5963 7.14512 78.7281 7.31018 78.8062 7.55292C78.8843 7.79566 78.9234 8.16463 78.9234 8.65982V13.7574H77.605V8.65982Z" fill="#E94057"/>
</svg>
