<svg width="22" height="22" viewBox="0 0 22 22" fill="none" xmlns="http://www.w3.org/2000/svg">
<path d="M11.0181 20.9092C10.1106 20.9092 9.23057 20.5425 8.5889 19.9008C7.94723 19.2592 7.58057 18.3792 7.58057 17.4717H8.95557C8.95557 18.0125 9.17557 18.5442 9.56057 18.9292C9.94557 19.3142 10.4772 19.5342 11.0181 19.5342C12.1547 19.5342 13.0806 18.6083 13.0806 17.4717H14.4556C14.4556 19.3692 12.9156 20.9092 11.0181 20.9092Z" fill="white"/>
<path d="M11.0185 18.8193C8.88271 18.8193 6.74687 18.4801 4.72104 17.8018C3.95104 17.5359 3.36437 16.9951 3.10771 16.2893C2.84187 15.5834 2.93354 14.8043 3.35521 14.1076L4.40937 12.3568C4.62937 11.9901 4.83104 11.2568 4.83104 10.8259V8.17676C4.83104 4.76676 7.60854 1.98926 11.0185 1.98926C14.4285 1.98926 17.206 4.76676 17.206 8.17676V10.8259C17.206 11.2476 17.4077 11.9901 17.6277 12.3659L18.6727 14.1076C19.0669 14.7676 19.1402 15.5651 18.8744 16.2893C18.6085 17.0134 18.031 17.5634 17.3069 17.8018C15.2902 18.4801 13.1544 18.8193 11.0185 18.8193ZM11.0185 3.36426C8.36937 3.36426 6.20604 5.51842 6.20604 8.17676V10.8259C6.20604 11.4951 5.93104 12.4851 5.59187 13.0626L4.53771 14.8134C4.33604 15.1526 4.28104 15.5101 4.40021 15.8126C4.51021 16.1243 4.78521 16.3626 5.16104 16.4909C8.99271 17.7743 13.0535 17.7743 16.8852 16.4909C17.2152 16.3809 17.4719 16.1334 17.591 15.8034C17.7102 15.4734 17.6827 15.1159 17.4994 14.8134L16.4452 13.0626C16.0969 12.4668 15.831 11.4859 15.831 10.8168V8.17676C15.831 5.51842 13.6769 3.36426 11.0185 3.36426Z" fill="white"/>
<path d="M12.7232 3.61179C12.6591 3.61179 12.5949 3.60262 12.5307 3.58429C12.2649 3.51095 12.0082 3.45595 11.7607 3.41929C10.9816 3.31845 10.2299 3.37345 9.52407 3.58429C9.2674 3.66679 8.9924 3.58429 8.81823 3.39179C8.64407 3.19929 8.58907 2.92429 8.6899 2.67679C9.06573 1.71429 9.9824 1.08179 11.0274 1.08179C12.0724 1.08179 12.9891 1.70512 13.3649 2.67679C13.4566 2.92429 13.4107 3.19929 13.2366 3.39179C13.0991 3.53845 12.9066 3.61179 12.7232 3.61179Z" fill="white"/>
</svg>
